<svg xmlns="http://www.w3.org/2000/svg" viewBox="0 0 43.32 60.51"><defs><style>.cls-1{fill:#9dcb48;}.cls-2{fill:#8eb13e;}.cls-3{fill:#d4e06d;}</style></defs><g id="Layer_1-2" data-name="Layer 1"><path class="cls-1" d="M38.34,32.33a4.58,4.58,0,0,0-4.57,4.57v3.81l-2.23.79v-32A9.56,9.56,0,0,0,22,0V60.51h9.53V53.79l11.37-4q0-6.45,0-12.9A4.58,4.58,0,0,0,38.34,32.33Z"/><path class="cls-2" d="M22,0a9.56,9.56,0,0,0-9.54,9.54V30.23L9.58,28.36h0V19.11a4.18,4.18,0,0,0-8.36,0V36.69l11.23,7.88V60.51H22V0Z"/><path class="cls-3" d="M29.24,4.63l-1.69,2c-.11.13-.27.18-.34.1l-.34-.34c-.07-.07,0-.23.1-.34L29,4.4C29.24,4.19,29.44,4.39,29.24,4.63Z"/><path class="cls-3" d="M32.24,11.63l-1.69,2c-.11.13-.27.18-.34.1l-.34-.34c-.07-.07,0-.23.1-.34l2-1.69C32.24,11.19,32.44,11.39,32.24,11.63Z"/><path class="cls-3" d="M28,18.6l-1.69,2c-.11.13-.27.18-.34.1l-.34-.34c-.07-.07,0-.23.1-.34l2-1.69C28,18.16,28.15,18.36,28,18.6Z"/><path class="cls-3" d="M32.4,25.18l-1.69,2c-.11.13-.27.18-.34.1L30,27c-.07-.07,0-.23.1-.34l2-1.69C32.4,24.74,32.6,24.94,32.4,25.18Z"/><path class="cls-3" d="M26.08,32.3l-1.69,2c-.11.13-.27.18-.34.1l-.34-.34c-.07-.07,0-.23.1-.34l2-1.69C26.08,31.86,26.28,32.06,26.08,32.3Z"/><path class="cls-3" d="M29.72,56.53l-1.69,2c-.11.13-.27.18-.34.1l-.34-.34c-.07-.07,0-.23.1-.34l2-1.69C29.72,56.09,29.92,56.29,29.72,56.53Z"/><path class="cls-3" d="M43,34.9l-1.69,2c-.11.13-.27.18-.34.1l-.34-.34c-.07-.07,0-.23.1-.34l2-1.69C43,34.46,43.18,34.66,43,34.9Z"/><path class="cls-3" d="M43.24,45.63l-1.69,2c-.11.13-.27.18-.34.1l-.34-.34c-.07-.07,0-.23.1-.34l2-1.69C43.24,45.19,43.44,45.39,43.24,45.63Z"/><path class="cls-3" d="M32.24,35.63l-1.69,2c-.11.13-.27.18-.34.1l-.34-.34c-.07-.07,0-.23.1-.34l2-1.69C32.24,35.19,32.44,35.39,32.24,35.63Z"/><path class="cls-3" d="M27.24,45.63l-1.69,2c-.11.13-.27.18-.34.1l-.34-.34c-.07-.07,0-.23.1-.34l2-1.69C27.24,45.19,27.44,45.39,27.24,45.63Z"/><path class="cls-3" d="M9.24,25.63l-1.69,2c-.11.13-.27.18-.34.1l-.34-.34c-.07-.07,0-.23.1-.34L9,25.4C9.24,25.19,9.44,25.39,9.24,25.63Z"/><path class="cls-3" d="M9.24,15.63l-1.69,2c-.11.13-.27.18-.34.1l-.34-.34c-.07-.07,0-.23.1-.34L9,15.4C9.24,15.19,9.44,15.39,9.24,15.63Z"/><path class="cls-3" d="M.32,32.4l2,1.69c.13.11.18.27.1.34l-.34.34c-.07.07-.23,0-.34-.1l-1.69-2C-.12,32.39.08,32.19.32,32.4Z"/><path class="cls-3" d="M1.32,18.4l2,1.69c.13.11.18.27.1.34l-.34.34c-.07.07-.23,0-.34-.1l-1.69-2C.88,18.39,1.08,18.19,1.32,18.4Z"/><path class="cls-3" d="M7.32,37.4l2,1.69c.13.11.18.27.1.34l-.34.34c-.07.07-.23,0-.34-.1l-1.69-2C6.88,37.39,7.08,37.19,7.32,37.4Z"/><path class="cls-3" d="M12.32,20.4l2,1.69c.13.11.18.27.1.34l-.34.34c-.07.07-.23,0-.34-.1l-1.69-2C11.88,20.39,12.08,20.19,12.32,20.4Z"/><path class="cls-3" d="M18.32,26.4l2,1.69c.13.11.18.27.1.34l-.34.34c-.07.07-.23,0-.34-.1l-1.69-2C17.88,26.39,18.08,26.19,18.32,26.4Z"/><path class="cls-3" d="M17.32,14.4l2,1.69c.13.11.18.27.1.34l-.34.34c-.07.07-.23,0-.34-.1l-1.69-2C16.88,14.39,17.08,14.19,17.32,14.4Z"/><path class="cls-3" d="M18.32,3.4l2,1.69c.13.11.18.27.1.34l-.34.34c-.07.07-.23,0-.34-.1l-1.69-2C17.88,3.39,18.08,3.19,18.32,3.4Z"/><path class="cls-3" d="M12.32,8.4l2,1.69c.13.11.18.27.1.34l-.34.34c-.07.07-.23,0-.34-.1l-1.69-2C11.88,8.39,12.08,8.19,12.32,8.4Z"/><path class="cls-3" d="M12.32,54.4l2,1.69c.13.11.18.27.1.34l-.34.34c-.07.07-.23,0-.34-.1l-1.69-2C11.88,54.39,12.08,54.19,12.32,54.4Z"/><path class="cls-3" d="M16.32,45.4l2,1.69c.13.11.18.27.1.34l-.34.34c-.07.07-.23,0-.34-.1l-1.69-2C15.88,45.39,16.08,45.19,16.32,45.4Z"/><path class="cls-3" d="M14.32,35.4l2,1.69c.13.11.18.27.1.34l-.34.34c-.07.07-.23,0-.34-.1l-1.69-2C13.88,35.39,14.08,35.19,14.32,35.4Z"/><path class="cls-3" d="M32.32,43.4l2,1.69c.13.11.18.27.1.34l-.34.34c-.07.07-.23,0-.34-.1l-1.69-2C31.88,43.39,32.08,43.19,32.32,43.4Z"/></g></svg>